HIERARCHY
ROOT Hips
{
	OFFSET 0.000000 0.000000 0.000000
	CHANNELS 6 Xposition Yposition Zposition Xrotation Yrotation Zrotation
	JOINT LeftUpLeg_virtual
	{
		OFFSET 0.000000 0.000000 0.000000
		CHANNELS 3 Xrotation Yrotation Zrotation
		JOINT LeftUpLeg
		{
			OFFSET 13.026900 -6.336304 -1.092800
			CHANNELS 3 Xrotation Yrotation Zrotation
			JOINT LeftLeg
			{
				OFFSET 0.524474 -46.096886 9.782700
				CHANNELS 3 Xrotation Yrotation Zrotation
				JOINT LeftFoot
				{
					OFFSET -0.524474 -53.427422 -12.948200
					CHANNELS 3 Xrotation Yrotation Zrotation
					JOINT LeftToeBase
					{
						OFFSET 0.192200 -14.009700 16.364100
						CHANNELS 3 Xrotation Yrotation Zrotation
						JOINT LeftToe_End
						{
							OFFSET -1.784700 -0.561700 9.474800
							CHANNELS 3 Xrotation Yrotation Zrotation
							End Site
							{
								OFFSET 0 0 0
							}
						}
					}
				}
			}
		}
	}
	JOINT RightUpLeg_virtual
	{
		OFFSET 0.000000 0.000000 0.000000
		CHANNELS 3 Xrotation Yrotation Zrotation
		JOINT RightUpLeg
		{
			OFFSET -12.883000 -6.336304 -1.092800
			CHANNELS 3 Xrotation Yrotation Zrotation
			JOINT RightLeg
			{
				OFFSET -0.524587 -46.096825 9.782800
				CHANNELS 3 Xrotation Yrotation Zrotation
				JOINT RightFoot
				{
					OFFSET 0.524587 -53.427383 -12.948300
					CHANNELS 3 Xrotation Yrotation Zrotation
					JOINT RightToeBase
					{
						OFFSET -0.192200 -14.009700 16.364100
						CHANNELS 3 Xrotation Yrotation Zrotation
						JOINT RightToe_End
						{
							OFFSET 1.784700 -0.561700 9.474800
							CHANNELS 3 Xrotation Yrotation Zrotation
							End Site
							{
								OFFSET 0 0 0
							}
						}
					}
				}
			}
		}
	}
	JOINT Spine_virtual
	{
		OFFSET 0.000000 0.000000 0.000000
		CHANNELS 3 Xrotation Yrotation Zrotation
		JOINT Spine
		{
			OFFSET 0.072000 7.257294 -0.789700
			CHANNELS 3 Xrotation Yrotation Zrotation
			JOINT Spine1
			{
				OFFSET 0.000000 12.508769 -0.658067
				CHANNELS 3 Xrotation Yrotation Zrotation
				JOINT Spine1_split
				{
					OFFSET 0.000000 12.508769 -0.658067
					CHANNELS 3 Xrotation Yrotation Zrotation
					JOINT Spine2
					{
						OFFSET 0.000000 12.508769 -0.658067
						CHANNELS 3 Xrotation Yrotation Zrotation
						JOINT Neck_virtual
						{
							OFFSET 0.000000 0.000000 0.000000
							CHANNELS 3 Xrotation Yrotation Zrotation
							JOINT Neck
							{
								OFFSET 0.000000 14.033295 7.520400
								CHANNELS 3 Xrotation Yrotation Zrotation
								JOINT Head
								{
									OFFSET 0.000000 8.198502 5.703100
									CHANNELS 3 Xrotation Yrotation Zrotation
									JOINT HeadTop_End
									{
										OFFSET 0.000000 17.760803 13.332701
										CHANNELS 3 Xrotation Yrotation Zrotation
										End Site
										{
											OFFSET 0 0 0
										}
									}
								}
							}
						}
						JOINT LeftShoulder_virtual
						{
							OFFSET 0.000000 0.000000 0.000000
							CHANNELS 3 Xrotation Yrotation Zrotation
							JOINT LeftShoulder
							{
								OFFSET 6.292450 5.785301 -0.669000
								CHANNELS 3 Xrotation Yrotation Zrotation
								JOINT LeftShoulder_split
								{
									OFFSET 6.292450 5.785301 -0.669000
									CHANNELS 3 Xrotation Yrotation Zrotation
									JOINT LeftArm
									{
										OFFSET 13.907140 -6.093903 1.965100
										CHANNELS 3 Xrotation Yrotation Zrotation
										JOINT LeftForeArm
										{
											OFFSET 34.140198 0.000000 0.000000
											CHANNELS 3 Xrotation Yrotation Zrotation
											JOINT LeftHand
											{
												OFFSET 40.960209 0.000000 0.000000
												CHANNELS 3 Xrotation Yrotation Zrotation
												End Site
												{
													OFFSET 0 0 0
												}
											}
										}
									}
								}
							}
						}
						JOINT RightShoulder_virtual
						{
							OFFSET 0.000000 0.000000 0.000000
							CHANNELS 3 Xrotation Yrotation Zrotation
							JOINT RightShoulder
							{
								OFFSET -6.292450 5.785301 -0.669000
								CHANNELS 3 Xrotation Yrotation Zrotation
								JOINT RightShoulder_split
								{
									OFFSET -6.292450 5.785301 -0.669000
									CHANNELS 3 Xrotation Yrotation Zrotation
									JOINT RightArm
									{
										OFFSET -13.907140 -6.093903 1.965100
										CHANNELS 3 Xrotation Yrotation Zrotation
										JOINT RightForeArm
										{
											OFFSET -34.140198 0.000000 0.000000
											CHANNELS 3 Xrotation Yrotation Zrotation
											JOINT RightHand
											{
												OFFSET -40.960209 0.000000 0.000000
												CHANNELS 3 Xrotation Yrotation Zrotation
												End Site
												{
													OFFSET 0 0 0
												}
											}
										}
									}
								}
							}
						}
					}
				}
			}
		}
	}
}
MOTION
Frames: 10
Frame Time: 0.03333333
63.989342 112.277962 184.866165 0.000000 0.000000 0.000000 -8.915013 38.721572 10.447486 -22.013857 3.512810 -11.841140 29.336414 8.658876 1.231054 18.258219 -5.792337 16.739602 -25.761160 2.553618 1.428195 0.000000 0.000000 0.000000 -7.489599 39.033397 9.592306 -24.522730 12.860944 -3.163367 43.225002 1.684881 2.604394 17.469529 -16.838826 4.826704 -29.522854 5.708226 0.704672 0.000000 0.000000 0.000000 -9.541825 40.798164 9.960208 7.067490 -6.019403 -2.032847 -1.902978 -1.445079 1.032241 0.025349 -0.000473 0.036902 0.000000 0.000000 0.000000 -0.284597 0.590323 2.166502 -9.830137 6.909788 5.435994 -8.769120 -9.515100 -24.407095 0.000000 0.000000 0.000000 -3.008648 -0.351779 1.289912 1.757447 0.374193 -5.961552 1.675672 -0.529714 -3.163381 11.059581 6.036274 -62.878489 19.885655 -37.279480 7.151477 0.000000 0.000000 0.000000 -1.441160 -0.763931 1.969029 1.119042 3.018309 -1.578786 -17.574365 -3.417405 1.152444 11.652187 1.944601 65.861007 -1.886914 18.962171 14.573964 0.000000 0.000000 0.000000 
65.903366 113.679443 187.921570 0.000000 0.000000 0.000000 -9.265566 42.306670 10.492444 -17.900900 1.396720 -12.856919 28.083498 8.804145 1.879112 15.302844 -4.571263 17.215174 -24.957433 2.571463 0.923919 0.000000 0.000000 0.000000 -7.563722 41.730243 9.360963 -29.852479 13.463777 -3.194174 39.985030 0.647077 2.599904 18.650245 -16.900195 2.658150 -23.502869 5.764870 0.545593 0.000000 0.000000 0.000000 -10.148495 43.618814 10.321768 7.978224 -6.871108 -1.685452 -2.333897 -1.732137 1.249361 0.078697 -0.033003 0.000636 0.000000 0.000000 0.000000 -0.251362 0.288806 2.400657 -10.049655 6.700738 5.557279 -10.086065 -9.040907 -24.393420 0.000000 0.000000 0.000000 -3.173675 -0.698498 1.410587 1.802600 -0.630647 -5.921263 1.190467 0.885856 -3.064897 9.940774 2.881605 -61.551370 19.888688 -36.972599 7.639096 0.000000 0.000000 0.000000 -1.683495 -1.056815 2.261922 0.988175 2.216367 -0.425342 -18.132354 -3.471964 0.176699 12.400574 0.661788 66.509753 -1.140676 18.693787 13.895318 0.000000 0.000000 0.000000 
67.892853 115.095001 190.784592 0.000000 0.000000 0.000000 -9.328260 45.853242 10.582510 -13.853044 0.198565 -13.265439 25.859685 8.313246 2.325869 12.294326 -4.513875 17.957474 -23.798913 2.499775 0.597629 0.000000 0.000000 0.000000 -7.598017 44.895189 9.275789 -33.427035 12.711349 -3.702143 34.712463 0.137258 2.150583 20.577077 -15.906257 2.022461 -18.078343 6.021667 -0.462656 0.000000 0.000000 0.000000 -10.922075 46.710226 10.939613 8.531577 -7.621333 -1.751584 -2.630689 -1.987344 1.482357 0.134394 -0.092886 -0.026752 0.000000 0.000000 0.000000 -0.243671 0.052147 2.609647 -10.038500 6.413648 5.856349 -10.899330 -8.834442 -24.303840 0.000000 0.000000 0.000000 -3.256286 -0.993513 1.545148 1.833831 -1.583116 -5.916673 0.723451 1.969270 -2.741062 8.483587 -0.171631 -60.219852 19.890556 -36.691127 7.998657 0.000000 0.000000 0.000000 -1.814163 -1.285958 2.543609 0.907638 1.370883 1.175043 -18.711701 -3.475471 -0.634296 13.026506 -0.768014 66.724692 -0.633679 18.698690 13.561775 0.000000 0.000000 0.000000 
69.971603 116.380173 193.453003 0.000000 0.000000 0.000000 -9.203100 49.248778 10.737782 -10.373893 -0.560576 -12.922153 23.396965 6.568144 2.505670 11.038754 -5.949826 17.883416 -24.502837 2.278474 0.633828 0.000000 0.000000 0.000000 -7.802000 48.713124 9.491484 -35.397612 10.740134 -4.623657 28.317372 0.080820 1.483691 23.002677 -14.084689 2.802525 -13.667660 6.367918 -2.275589 0.000000 0.000000 0.000000 -11.565239 50.029787 11.616458 8.751811 -8.288834 -2.233548 -2.754301 -2.219357 1.753396 0.156507 -0.146822 -0.026143 0.000000 0.000000 0.000000 -0.227445 -0.113382 2.812442 -9.809361 6.099269 6.335686 -11.262145 -8.688617 -24.044136 0.000000 0.000000 0.000000 -3.276575 -1.226608 1.732942 1.822231 -2.421808 -5.826472 0.347784 2.607784 -2.355805 6.711009 -2.700486 -59.108853 20.037856 -37.037828 8.360588 0.000000 0.000000 0.000000 -1.872353 -1.470547 2.837570 0.915779 0.411679 3.025787 -19.206277 -3.404236 -1.164914 13.590120 -2.283813 66.317025 -0.452715 18.943183 13.625298 0.000000 0.000000 0.000000 
71.939285 117.407349 196.102631 0.000000 0.000000 0.000000 -8.854394 52.357037 10.720555 -7.423148 -1.195367 -12.037385 21.570219 4.186049 2.244183 11.847094 -8.103289 17.639370 -27.119591 1.956118 0.623196 0.000000 0.000000 0.000000 -8.172266 52.893811 9.846291 -36.215449 7.795977 -5.826548 22.125541 0.277094 0.829631 25.743910 -11.710446 4.833227 -10.789776 6.746551 -4.630752 0.000000 0.000000 0.000000 -11.886453 53.291564 12.122888 8.680686 -8.885028 -2.946213 -2.726770 -2.425425 2.089087 0.138975 -0.160865 -0.014843 0.000000 0.000000 0.000000 -0.190505 -0.241686 3.025435 -9.462588 5.844779 6.934408 -11.340161 -8.462201 -23.592044 0.000000 0.000000 0.000000 -3.262330 -1.407692 1.988841 1.772110 -3.142043 -5.572789 0.251187 2.681948 -1.969004 4.810849 -4.468312 -58.306272 20.441023 -38.204120 8.850107 0.000000 0.000000 0.000000 -1.844423 -1.631926 3.163934 1.009479 -0.645592 4.977891 -19.534754 -3.158334 -1.529659 14.098585 -3.690274 65.288918 -0.587739 19.372628 14.029415 0.000000 0.000000 0.000000 
73.886536 118.003441 198.964661 0.000000 0.000000 0.000000 -8.374749 55.357157 10.534043 -5.027098 -1.676586 -10.672964 20.676596 1.820778 1.671536 13.759479 -10.263930 17.651985 -30.972770 1.763941 0.269784 0.000000 0.000000 0.000000 -8.490415 56.742186 10.144079 -36.516818 4.396974 -7.048597 17.054441 0.417195 0.268303 28.091043 -9.434885 7.475231 -9.131522 7.104459 -7.123197 0.000000 0.000000 0.000000 -11.827177 56.214984 12.362442 8.409439 -9.405246 -3.714353 -2.569237 -2.622685 2.482632 0.144457 -0.160548 -0.001367 0.000000 0.000000 0.000000 -0.110865 -0.353878 3.268694 -9.077643 5.706726 7.587447 -11.466418 -8.076959 -23.024978 0.000000 0.000000 0.000000 -3.259411 -1.565559 2.309175 1.709607 -3.739977 -5.143203 0.214996 2.307349 -1.769893 3.007622 -5.356715 -57.930905 20.965028 -39.712076 9.374375 0.000000 0.000000 0.000000 -1.775375 -1.804229 3.533951 1.237232 -1.712341 6.838578 -19.707143 -3.004262 -1.601827 14.545953 -4.823821 63.854448 -0.964259 19.950892 14.622089 0.000000 0.000000 0.000000 
75.832062 118.013344 202.141739 0.000000 0.000000 0.000000 -8.140845 58.339706 10.488901 -2.943875 -1.919351 -9.017242 20.521845 0.072142 1.135608 15.125707 -11.921623 17.781718 -35.227179 1.834251 -0.375881 0.000000 0.000000 0.000000 -8.717581 59.821932 10.289152 -36.731501 1.235785 -8.005626 13.733870 0.166704 -0.218637 29.436633 -8.169470 9.610793 -7.515594 7.353955 -9.424188 0.000000 0.000000 0.000000 -11.768878 58.707142 12.575146 8.046115 -9.901770 -4.408159 -2.388824 -2.800925 2.891022 0.135411 -0.155984 -0.014506 0.000000 0.000000 0.000000 0.026371 -0.485685 3.556263 -8.674440 5.693726 8.156341 -11.665145 -7.661998 -22.446688 0.000000 0.000000 0.000000 -3.303029 -1.725442 2.660623 1.682239 -4.058044 -4.573151 0.148806 1.656510 -1.830355 1.506592 -5.491831 -58.031070 21.479973 -41.093546 9.890238 0.000000 0.000000 0.000000 -1.742603 -2.001995 3.938415 1.542367 -2.681471 8.409894 -19.627918 -2.856499 -1.385748 14.848727 -5.506277 62.315210 -1.479706 20.597262 15.198064 0.000000 0.000000 0.000000 
77.758934 117.451675 205.619308 0.000000 0.000000 0.000000 -8.194674 60.879942 10.574302 -0.355981 -1.916729 -7.479219 20.543561 -0.467024 0.721858 14.221095 -12.603160 18.366336 -38.733255 2.184387 -1.221603 0.000000 0.000000 0.000000 -8.773795 61.868933 10.298771 -37.170863 -1.009317 -8.575758 12.724737 -0.550767 -0.614784 29.865692 -8.132932 10.875834 -5.670015 7.450142 -11.259508 0.000000 0.000000 0.000000 -11.793315 60.517095 12.775541 7.510782 -10.366092 -4.926408 -2.280522 -2.960319 3.252337 0.124768 -0.153658 -0.035297 0.000000 0.000000 0.000000 0.144774 -0.646134 3.862538 -8.331613 5.769296 8.510645 -11.915443 -7.478576 -21.952911 0.000000 0.000000 0.000000 -3.441529 -1.892653 3.004135 1.699787 -4.012948 -3.931903 0.057422 0.868449 -2.044244 0.607901 -5.146627 -58.570108 21.838659 -41.930634 10.266553 0.000000 0.000000 0.000000 -1.805812 -2.219597 4.326133 1.896160 -3.475124 9.590910 -19.412630 -2.794801 -1.139189 14.942403 -5.760246 61.107940 -1.989650 21.214465 15.568776 0.000000 0.000000 0.000000 
79.697174 116.463562 209.266769 0.000000 0.000000 0.000000 -8.895743 62.652130 11.150515 2.485577 -2.011209 -6.053848 20.868858 -0.685432 0.590888 11.656380 -12.776278 18.093378 -41.444659 2.650217 -1.703286 0.000000 0.000000 0.000000 -8.809009 62.894977 10.326056 -38.281455 -1.648877 -8.656749 14.116422 -1.402566 -0.894170 29.875719 -8.737438 11.642127 -4.437705 7.457059 -12.467647 0.000000 0.000000 0.000000 -11.745277 61.735450 12.787199 6.842501 -10.758339 -5.211331 -2.308777 -3.088461 3.495085 0.125220 -0.152916 -0.061858 0.000000 0.000000 0.000000 0.151903 -0.820284 4.163274 -8.055601 5.888834 8.566406 -12.108208 -7.769929 -21.571337 0.000000 0.000000 0.000000 -3.674957 -2.056071 3.275302 1.762221 -3.527054 -3.330763 -0.077020 0.190752 -2.267560 0.547701 -4.653410 -59.491685 21.906510 -42.065889 10.330167 0.000000 0.000000 0.000000 -2.004287 -2.437719 4.628502 2.257236 -4.023482 10.245154 -19.175942 -2.956073 -0.696932 14.933374 -5.724227 60.582118 -2.376566 21.652205 15.577741 0.000000 0.000000 0.000000 
81.513245 115.254189 212.878876 0.000000 0.000000 0.000000 -10.067406 63.386082 11.959025 5.132119 -2.436680 -4.820947 21.514841 -0.601407 0.713356 8.825477 -12.468947 17.292313 -43.083119 2.957530 -1.685645 0.000000 0.000000 0.000000 -9.228487 63.270528 10.578719 -39.952891 -0.565058 -8.176208 17.848884 -2.065817 -0.987146 30.197199 -9.153464 12.270643 -4.794969 7.536571 -13.005336 0.000000 0.000000 0.000000 -11.748998 62.463808 12.564276 6.029644 -11.017691 -5.186633 -2.545086 -3.162629 3.578625 0.096511 -0.127432 -0.086795 0.000000 0.000000 0.000000 -0.021431 -0.993231 4.400349 -7.817180 6.006941 8.307132 -12.028892 -8.667481 -21.224492 0.000000 0.000000 0.000000 -4.001302 -2.187442 3.421030 1.868103 -2.626553 -2.851768 -0.085510 -0.468336 -2.292901 1.409944 -4.440891 -60.598340 21.652893 -41.561083 9.945738 0.000000 0.000000 0.000000 -2.302674 -2.617268 4.780262 2.584312 -4.351208 10.362572 -18.847946 -3.208138 -0.347001 14.952119 -5.593482 60.907584 -2.572908 21.792096 15.217084 0.000000 0.000000 0.000000 
